HIERARCHY
ROOT hip
{
  OFFSET 0 0 0
  CHANNELS 6 Xposition Yposition Zposition Zrotation Yrotation Xrotation
  JOINT abdomen
  {
    OFFSET 0 20.6881 -0.73152
    CHANNELS 3 Zrotation Xrotation Yrotation
    JOINT chest
    {
      OFFSET 0 11.7043 -0.48768
      CHANNELS 3 Zrotation Xrotation Yrotation
      JOINT neck
      {
        OFFSET 0 22.1894 -2.19456
        CHANNELS 3 Zrotation Xrotation Yrotation
        JOINT head
        {
          OFFSET -0.24384 7.07133 1.2192
          CHANNELS 3 Zrotation Xrotation Yrotation
          JOINT leftEye
          {
            OFFSET 4.14528 8.04674 8.04672
            CHANNELS 3 Zrotation Xrotation Yrotation
            End Site
            {
              OFFSET 1 0 0
            }
          }
          JOINT rightEye
          {
            OFFSET -3.6576 8.04674 8.04672
            CHANNELS 3 Zrotation Xrotation Yrotation
            End Site
            {
              OFFSET 1 0 0
            }
          }
        }
      }
      JOINT rCollar
      {
        OFFSET -2.68224 19.2634 -4.8768
        CHANNELS 3 Zrotation Xrotation Yrotation
        JOINT rShldr
        {
          OFFSET -8.77824 -1.95073 1.46304
          CHANNELS 3 Zrotation Xrotation Yrotation
          JOINT rForeArm
          {
            OFFSET -28.1742 -1.7115 0.48768
            CHANNELS 3 Zrotation Xrotation Yrotation
            JOINT rHand
            {
              OFFSET -22.5879 0.773209 7.07136
              CHANNELS 3 Zrotation Xrotation Yrotation
              JOINT rThumb1
              {
                OFFSET -1.2192 -0.487915 3.41376
                CHANNELS 3 Zrotation Xrotation Yrotation
                JOINT rThumb2
                {
                  OFFSET -3.37035 -0.52449 3.41376
                  CHANNELS 3 Zrotation Xrotation Yrotation
                  End Site
                  {
                    OFFSET -1.78271 -1.18214 1.43049
                  }
                }
              }
              JOINT rIndex1
              {
                OFFSET -7.75947 0.938293 5.60832
                CHANNELS 3 Zrotation Xrotation Yrotation
                JOINT rIndex2
                {
                  OFFSET -2.54057 -0.884171 1.56538
                  CHANNELS 3 Zrotation Xrotation Yrotation
                  End Site
                  {
                    OFFSET -1.62519 -0.234802 1.16502
                  }
                }
              }
              JOINT rMid1
              {
                OFFSET -8.24714 1.18213 3.41376
                CHANNELS 3 Zrotation Xrotation Yrotation
                JOINT rMid2
                {
                  OFFSET -3.10165 -0.590103 1.0647
                  CHANNELS 3 Zrotation Xrotation Yrotation
                  End Site
                  {
                    OFFSET -2.48547 -0.328903 0.83742
                  }
                }
              }
              JOINT rRing1
              {
                OFFSET -8.82822 0.546677 1.51678
                CHANNELS 3 Zrotation Xrotation Yrotation
                JOINT rRing2
                {
                  OFFSET -2.60934 -0.819778 -0.0198488
                  CHANNELS 3 Zrotation Xrotation Yrotation
                  End Site
                  {
                    OFFSET -2.33842 -0.294052 0.168128
                  }
                }
              }
              JOINT rPinky1
              {
                OFFSET -8.27202 -0.0477905 -0.4584
                CHANNELS 3 Zrotation Xrotation Yrotation
                JOINT rPinky2
                {
                  OFFSET -1.82734 -0.647385 -0.700984
                  CHANNELS 3 Zrotation Xrotation Yrotation
                  End Site
                  {
                    OFFSET -1.69225 -0.51767 -0.607171
                  }
                }
              }
            }
          }
        }
      }
      JOINT lCollar
      {
        OFFSET 2.68224 19.2634 -4.8768
        CHANNELS 3 Zrotation Xrotation Yrotation
        JOINT lShldr
        {
          OFFSET 8.77824 -1.95073 1.46304
          CHANNELS 3 Zrotation Xrotation Yrotation
          JOINT lForeArm
          {
            OFFSET 28.1742 -1.7115 0.48768
            CHANNELS 3 Zrotation Xrotation Yrotation
            JOINT lHand
            {
              OFFSET 22.5879 0.773209 7.07136
              CHANNELS 3 Zrotation Xrotation Yrotation
              JOINT lThumb1
              {
                OFFSET 1.2192 -0.487915 3.41376
                CHANNELS 3 Zrotation Xrotation Yrotation
                JOINT lThumb2
                {
                  OFFSET 3.37035 -0.52449 3.41376
                  CHANNELS 3 Zrotation Xrotation Yrotation
                  End Site
                  {
                    OFFSET 1.78271 -1.18214 1.43049
                  }
                }
              }
              JOINT lIndex1
              {
                OFFSET 7.75947 0.938293 5.60832
                CHANNELS 3 Zrotation Xrotation Yrotation
                JOINT lIndex2
                {
                  OFFSET 2.54057 -0.884171 1.56538
                  CHANNELS 3 Zrotation Xrotation Yrotation
                  End Site
                  {
                    OFFSET 1.62519 -0.234802 1.16502
                  }
                }
              }
              JOINT lMid1
              {
                OFFSET 8.24714 1.18213 3.41376
                CHANNELS 3 Zrotation Xrotation Yrotation
                JOINT lMid2
                {
                  OFFSET 3.10165 -0.590103 1.0647
                  CHANNELS 3 Zrotation Xrotation Yrotation
                  End Site
                  {
                    OFFSET 2.48547 -0.328903 0.83742
                  }
                }
              }
              JOINT lRing1
              {
                OFFSET 8.82822 0.546677 1.51678
                CHANNELS 3 Zrotation Xrotation Yrotation
                JOINT lRing2
                {
                  OFFSET 2.60934 -0.819778 -0.0198488
                  CHANNELS 3 Zrotation Xrotation Yrotation
                  End Site
                  {
                    OFFSET 2.33842 -0.294052 0.168128
                  }
                }
              }
              JOINT lPinky1
              {
                OFFSET 8.27202 -0.0477905 -0.4584
                CHANNELS 3 Zrotation Xrotation Yrotation
                JOINT lPinky2
                {
                  OFFSET 1.82734 -0.647385 -0.700984
                  CHANNELS 3 Zrotation Xrotation Yrotation
                  End Site
                  {
                    OFFSET 1.69225 -0.51767 -0.607171
                  }
                }
              }
            }
          }
        }
      }
    }
  }
  JOINT rButtock
  {
    OFFSET -8.77824 4.35084 1.2192
    CHANNELS 3 Zrotation Xrotation Yrotation
    JOINT rThigh
    {
      OFFSET 0 -1.70687 -2.19456
      CHANNELS 3 Zrotation Xrotation Yrotation
      JOINT rShin
      {
        OFFSET 0 -36.8199 0.73152
        CHANNELS 3 Zrotation Xrotation Yrotation
        JOINT rFoot
        {
          OFFSET 0.73152 -45.1104 -5.12064
          CHANNELS 3 Zrotation Xrotation Yrotation
          End Site
          {
            OFFSET -1.1221 -3.69964 12.103
          }
        }
      }
    }
  }
  JOINT lButtock
  {
    OFFSET 8.77824 4.35084 1.2192
    CHANNELS 3 Zrotation Xrotation Yrotation
    JOINT lThigh
    {
      OFFSET 0 -1.70687 -2.19456
      CHANNELS 3 Zrotation Xrotation Yrotation
      JOINT lShin
      {
        OFFSET 0 -36.8199 0.73152
        CHANNELS 3 Zrotation Xrotation Yrotation
        JOINT lFoot
        {
          OFFSET -0.73152 -45.1104 -5.12064
          CHANNELS 3 Zrotation Xrotation Yrotation
          End Site
          {
            OFFSET 1.1221 -3.69964 12.103
          }
        }
      }
    }
  }
}
MOTION
Frames:	4
Frame Time:	0.03333
4.310839343816042 58.85401368141174 43.981632590293884 -5.612743377685547 44.61568069458008 -8.1141357421875 3.5991017818450928 14.134130477905273 -8.038019180297852 10.208163261413574 -10.716207504272461 -0.8664063811302185 -9.504633903503418 15.503177642822266 -12.18033218383789 8.312151908874512 -24.66753387451172 -21.254764556884766 0.6829894781112671 -0.1735394299030304 0.19381898641586304 0.17522144317626953 -0.12921550869941711 -0.11298267543315887 -0.41221994161605835 -0.01511094719171524 0.24048951268196106 49.53189468383789 19.536563873291016 28.381017684936523 -27.793594360351562 -40.66941833496094 84.6492919921875 -1.0875234603881836 29.678020477294922 4.384834289550781 0.18815328180789948 -0.5138872861862183 0.2006281316280365 -0.34752050042152405 0.02627941407263279 -0.01808861829340458 -0.4029291272163391 -0.13020144402980804 0.12845201790332794 8.346325874328613 5.322599411010742 0.5710723996162415 -0.14074400067329407 0.28659167885780334 -0.21621496975421906 2.968996286392212 1.0132936239242554 -0.10061907023191452 -0.929293692111969 -0.4269959032535553 -0.17151620984077454 9.838717460632324 1.045783519744873 -0.16632816195487976 -0.2678433060646057 0.27964529395103455 -0.2344745397567749 2.4135406017303467 -0.7144601345062256 -0.05474711209535599 -0.18264560401439667 0.2732449769973755 0.4216647148132324 -24.18711280822754 81.44165802001953 -55.004547119140625 28.452938079833984 -40.0040397644043 -82.22331237792969 22.188426971435547 -73.98334503173828 29.40186309814453 -0.03779531642794609 -0.02438504621386528 0.11764553189277649 0.024499930441379547 -0.030881358310580254 0.07012190669775009 0.15196819603443146 -0.07722308486700058 0.06170494481921196 -8.345344543457031 5.231203079223633 -0.12608100473880768 0.3109024167060852 -0.010269509628415108 -0.0630335658788681 -3.027686834335327 0.47140154242515564 0.19668878614902496 -0.31961965560913086 -0.32559216022491455 0.5472941994667053 -10.580477714538574 0.7353558540344238 0.6026849150657654 -0.28528159856796265 -0.3047775328159332 -0.16309310495853424 -2.0488698482513428 -0.9200118184089661 0.5879285931587219 0.18441295623779297 -0.0962354838848114 0.10832971334457397 -34.673789978027344 -43.30448913574219 -29.697465896606445 -0.133453369140625 45.56946563720703 0.10147760808467865 -0.3343368172645569 25.006990432739258 1.8582311868667603 0.38180801272392273 -0.09640088677406311 0.24792972207069397 20.890605926513672 -33.81373596191406 25.334054946899414 4.549144744873047 76.33057403564453 -5.983294486999512 9.052703857421875 -24.805124282836914 20.567310333251953
3.9947410114109516 58.11602473258972 45.74305713176727 -7.125665664672852 47.66242980957031 -10.373802185058594 3.5459601879119873 14.39277172088623 -8.729973793029785 10.484874725341797 -10.18052864074707 -1.052841305732727 -9.437285423278809 16.012866973876953 -12.600993156433105 8.724024772644043 -24.488475799560547 -22.505067825317383 0.8585076928138733 -0.29352760314941406 0.18789900839328766 -0.11996763944625854 -0.08812412619590759 -0.22844147682189941 -0.18527211248874664 0.010889863595366478 0.20797261595726013 53.809871673583984 11.975631713867188 26.41593360900879 -27.9492244720459 -36.115234375 77.28695678710938 -0.7788298726081848 25.463308334350586 3.733994722366333 0.15530991554260254 -0.2971380054950714 0.25364917516708374 -0.26626431941986084 0.21224917471408844 0.04876372218132019 -0.2355578988790512 -0.08821988850831985 0.1079077273607254 8.280312538146973 5.459868907928467 0.616228461265564 0.03378710150718689 0.24342942237854004 -0.2662832736968994 2.9542648792266846 1.0184446573257446 0.10032472759485245 -0.8004648685455322 -0.22873079776763916 -0.23588600754737854 9.872767448425293 0.8437483310699463 0.03443441540002823 -0.46574127674102783 0.05730259045958519 -0.2856121361255646 2.2377350330352783 -0.5356954336166382 -0.003915539011359215 -0.14113886654376984 0.3078802824020386 0.5367160439491272 -50.12574005126953 81.38289642333984 -25.77008056640625 28.12912940979004 -41.34914016723633 -85.11927795410156 40.46802520751953 -79.55082702636719 48.036014556884766 -0.005832415074110031 -0.04444197192788124 0.3755318522453308 -0.07254475355148315 0.03136906400322914 0.19518505036830902 0.23136267066001892 -0.08945118635892868 -0.15913239121437073 -8.183075904846191 5.249866008758545 -0.3380134403705597 0.34779900312423706 0.123314268887043 -0.18798139691352844 -2.836695432662964 0.8878836035728455 -0.07873713225126266 -0.4458409249782562 -0.3540864586830139 0.5493011474609375 -10.663193702697754 0.942034125328064 0.5391181111335754 -0.30916208028793335 -0.5198941230773926 -0.08103880286216736 -2.148406744003296 -0.943199634552002 0.5137300491333008 0.2589832544326782 -0.047070011496543884 0.032224636524915695 -34.350318908691406 -41.05983352661133 -28.177959442138672 -0.4197588860988617 44.689903259277344 0.2878401577472687 0.19015276432037354 25.523271560668945 1.0123980045318604 0.48140478134155273 -0.1440860480070114 0.21084684133529663 22.639766693115234 -33.43796157836914 23.96006202697754 5.563049793243408 78.64654541015625 -7.123090744018555 9.7196683883667 -25.515071868896484 21.351390838623047
3.835400100797415 57.36783742904663 47.53810502588749 -8.351483345031738 49.241065979003906 -12.098261833190918 3.058087110519409 14.587657928466797 -8.657278060913086 10.339893341064453 -9.930954933166504 -1.2623697519302368 -9.522828102111816 16.584716796875 -13.028047561645508 9.448236465454102 -24.641008377075195 -23.468130111694336 0.7522806525230408 -0.27171796560287476 0.12379639595746994 -0.2269054353237152 -0.008927830494940281 -0.24915355443954468 0.00612980080768466 0.09332743287086487 -0.033616356551647186 54.7894401550293 6.380558967590332 27.084665298461914 -27.64573860168457 -32.1140022277832 71.09066009521484 -0.39220350980758667 19.250205993652344 2.791839122772217 -0.015005029737949371 -0.04093882068991661 0.03640211001038551 -0.2597620189189911 0.3718890845775604 0.03515111654996872 -0.08136894553899765 -0.05337579920887947 0.05936674028635025 7.917699813842773 5.565217971801758 0.778138279914856 0.04100286215543747 0.17045599222183228 -0.23729796707630157 3.0277657508850098 1.0346873998641968 0.332589715719223 -0.554111897945404 0.03210509940981865 -0.22074125707149506 9.982436180114746 0.4694024324417114 0.125141441822052 -0.5536713004112244 -0.06479335576295853 -0.3414691686630249 2.050114154815674 -0.5552420020103455 -0.06358526647090912 -0.09746046364307404 0.2798677086830139 0.4349718391895294 -62.12559509277344 81.2059555053711 -12.080780029296875 27.680461883544922 -41.44125747680664 -86.33192443847656 37.74497604370117 -79.18736267089844 45.22658157348633 0.11385412514209747 -0.21906620264053345 0.37979796528816223 -0.19409754872322083 0.07262667268514633 0.14215153455734253 0.18470343947410583 -0.1278284788131714 -0.18580429255962372 -8.041818618774414 5.29628324508667 -0.4337734878063202 0.32301169633865356 0.2554346024990082 -0.23510724306106567 -2.678981065750122 1.4005610942840576 -0.3418872654438019 -0.41488534212112427 -0.17637398838996887 0.4263351857662201 -10.576990127563477 0.9373120665550232 0.32912173867225647 -0.21234498918056488 -0.4683436453342438 0.0195887740701437 -2.004030466079712 -0.9026175737380981 0.508070707321167 0.25617679953575134 -0.11893860995769501 -0.12247037142515182 -34.66242218017578 -39.81185531616211 -28.078886032104492 -0.48088178038597107 44.929771423339844 0.4466762840747833 0.38890329003334045 24.271638870239258 1.5386282205581665 0.5393787026405334 -0.036759644746780396 0.2261885106563568 23.981616973876953 -32.83060836791992 22.44413185119629 4.641595363616943 80.128662109375 -6.559638023376465 10.397882461547852 -26.48678970336914 22.28938102722168
3.78476670011878 56.947678327560425 49.26566556096077 -8.717508316040039 49.05638122558594 -12.356266975402832 2.4398393630981445 14.572647094726562 -7.942065715789795 9.741802215576172 -10.02358341217041 -1.4026819467544556 -9.597912788391113 17.22707748413086 -13.383156776428223 10.030823707580566 -25.036951065063477 -23.944841384887695 0.4446150064468384 -0.16669748723506927 0.06991641968488693 -0.2143673449754715 0.03422994166612625 -0.1218644306063652 0.008840478025376797 0.1001945361495018 -0.20440129935741425 53.75828552246094 4.022410869598389 28.23026466369629 -27.444923400878906 -29.49502944946289 67.0075912475586 -0.2005470097064972 14.088587760925293 1.970665454864502 -0.15870720148086548 0.10578978806734085 -0.20982855558395386 -0.2807326018810272 0.4611126482486725 -0.09010346233844757 -0.054079875349998474 -0.03030579537153244 0.019796526059508324 7.4962849617004395 5.611301898956299 0.927676260471344 -0.08032321184873581 0.17012318968772888 -0.08945345878601074 3.0450401306152344 1.0807576179504395 0.441038578748703 -0.2365170568227768 0.19191832840442657 -0.15515102446079254 10.179686546325684 0.3039140999317169 0.057490359991788864 -0.4972276985645294 0.003189596114680171 -0.38557395339012146 2.011878490447998 -0.7195800542831421 -0.13451507687568665 -0.07493174076080322 0.18300975859165192 0.20414800941944122 -66.404052734375 81.29179382324219 -7.695148468017578 27.51045799255371 -40.969154357910156 -86.13336944580078 23.950254440307617 -75.28244018554688 31.01854705810547 0.14793364703655243 -0.40491804480552673 0.22945387661457062 -0.26576900482177734 0.10558267682790756 0.06441035121679306 0.02916223742067814 -0.14084048569202423 -0.07546284049749374 -7.984732151031494 5.363739967346191 -0.36979132890701294 0.19562649726867676 0.327138751745224 -0.20247429609298706 -2.619863510131836 1.6908397674560547 -0.44362953305244446 -0.34497275948524475 -0.03159778192639351 0.2720330059528351 -10.40619945526123 0.7421075105667114 0.10409275442361832 -0.08367495983839035 -0.2378823161125183 0.0772123783826828 -1.7281688451766968 -0.8018396496772766 0.5158341526985168 0.1970149129629135 -0.1384640783071518 -0.20865216851234436 -35.500022888183594 -39.94587707519531 -29.530338287353516 -0.29106277227401733 46.60884094238281 0.439441978931427 0.379812091588974 21.226688385009766 2.5203964710235596 0.4663596451282501 0.1361704170703888 0.327644407749176 25.224374771118164 -32.31377029418945 22.031335830688477 2.76080060005188 81.00836944580078 -5.123289585113525 10.939484596252441 -27.35717010498047 23.20607566833496
